# xmcd
#
# Track frame offsets: 
#        150
#        20541
#        38610
#        79518
#        111588
#        128143
#        159333
#        179242
#        202949
#        228144
#        247345
#        272605
#        289793
#
# Disc length: 4118 seconds
#
# Revision: 0
# Processed by: cddbd v1.5.2PL0 Copyright (c) Steve Scherf et al.
# Submitted via: ExactAudioCopy v0.95b3
#
DISCID=b110140d
DTITLE=Diamanda Galas - Teatro Dada, Castelfranco Emilia 09.05.1992 [B
DTITLE=ootleg]
DYEAR=1992
DGENRE=Blues
TTITLE0=Were You There When They Crucified My Lord?
TTITLE1=Let My People Go
TTITLE2=Balm In Gilead - Swing Low, Sweet Chariot
TTITLE3=Judgement Day
TTITLE4=My Love Will Never Die
TTITLE5=Cris d'Aveugle
TTITLE6=Reap What You Sow
TTITLE7=See That My Grave Is Kept Clean
TTITLE8=Insane Asylum
TTITLE9=Gloomy Sunday
TTITLE10=I Put A Spell On You
TTITLE11=At The Dark End Of The Street
TTITLE12=Let My People Go
EXTD=
EXTT0=
EXTT1=
EXTT2=
EXTT3=
EXTT4=
EXTT5=
EXTT6=
EXTT7=
EXTT8=
EXTT9=
EXTT10=
EXTT11=
EXTT12=
PLAYORDER=
